<?xml version="1.0" encoding="utf-8"?>
<!-- Generator: Adobe Illustrator 26.1.0, SVG Export Plug-In . SVG Version: 6.00 Build 0)  -->
<svg version="1.1" id="Ebene_1" xmlns="http://www.w3.org/2000/svg" xmlns:xlink="http://www.w3.org/1999/xlink" x="0px" y="0px"
	 viewBox="0 0 2067.1 2322.5" style="enable-background:new 0 0 2067.1 2322.5;" xml:space="preserve">
<style type="text/css">
	.st0{fill:#3561AB;stroke:#3561AB;stroke-width:0.5;stroke-miterlimit:10;}
</style>
<g>
	<g>
		<g>
			<path class="st0" d="M1717.2,2313.8c-20.7,0-42.1-1.8-64.4-5.3c-58.1-9.3-121.4-30.7-188.1-63.7
				c-148.3-73.3-312.1-202-486.9-382.7l0.6-0.6c174.7,180.6,338.5,309.3,486.7,382.5c66.7,33,129.9,54.3,187.9,63.6
				c54.5,8.7,104.6,6.7,148.8-6c96-27.5,162.4-105,186.7-218.3c23.6-109.8,6-243.9-49.6-377.6c-61.5-147.7-164.9-285.9-299.2-399.5
				c-210.4-178-425-304.2-632.5-426.2C817.4,768.4,638.1,663,494,533c-76.9-69.4-138.5-140.9-188.4-218.5
				c-55.3-86-95.5-178.2-123-282l0.8-0.2C210.8,136,251,228.1,306.3,314c49.9,77.5,111.4,148.9,188.3,218.3
				c144,130,323.3,235.4,513.1,347c207.5,122,422.1,248.2,632.6,426.3c134.4,113.7,238,252,299.5,399.8
				c55.7,133.9,73.3,268.1,49.7,378.1c-24.4,113.6-91,191.4-187.3,218.9C1775.8,2310,1747.4,2313.8,1717.2,2313.8z"/>
		</g>
	</g>
	<g>
		<g>
			<path class="st0" d="M1742.8,2260.9c-12.7,0-25.8-0.6-39.1-1.9c-55.6-5.4-116.9-22.1-182.2-49.6
				c-144.8-60.9-308.2-173.8-485.6-335.4l0.5-0.6c177.4,161.6,340.7,274.4,485.4,335.3c65.2,27.5,126.5,44.1,182,49.5
				c52.2,5.1,99.6,0.2,140.8-14.5c90.8-32.3,150.1-112.2,166.9-225c16.7-111.7-9.3-245.5-73.1-376.6
				c-70.4-144.8-181.3-276-320.8-379.5c-214.4-159-428.4-266-635.4-369.5C792.8,798.4,613.9,709,466.4,592
				c-78.7-62.4-143.1-128.2-196.9-201.2C210,310,164.1,221.6,129.5,120.6l0.8-0.3c34.7,100.9,80.4,189.2,140,270
				c53.7,72.9,118.1,138.7,196.7,201.1c147.4,116.9,326.3,206.3,515.6,301c207,103.5,421.1,210.5,635.6,369.5
				c139.6,103.5,250.6,234.8,321,379.8c63.8,131.3,89.8,265.3,73.1,377.1c-16.9,113.1-76.3,193.2-167.4,225.7
				C1814.1,2255.4,1779.9,2260.9,1742.8,2260.9z"/>
		</g>
	</g>
	<g>
		<g>
			<path class="st0" d="M1761.3,2206c-4.4,0-8.9-0.1-13.4-0.2c-53-1.8-112-13.9-175.6-36.1c-140.5-49.1-302.2-146.3-480.4-289
				l0.5-0.6c178.2,142.7,339.7,239.9,480.2,288.9c63.5,22.2,122.5,34.3,175.4,36.1c49.8,1.7,94.5-5.8,132.8-22.3
				c86.1-37,138.6-119.4,148.1-232c4.6-55.4-1.2-115.6-17.3-179c-16.5-64.8-43-130.2-78.9-194.3
				c-78.9-140.8-196.2-264.1-339.5-356.5c-216.6-139.7-428.6-227.6-633.5-312.7c-187.5-77.8-364.6-151.3-514.3-255
				C365.4,597.9,298.8,538,241.7,470c-63.2-75.3-114.1-159.4-155.3-257l0.7-0.3c41.3,97.5,92,181.5,155.2,256.8
				c57,67.9,123.6,127.8,203.4,183.1c149.6,103.7,326.7,177.1,514.1,254.9c205,85.1,417,173,633.7,312.8
				c143.3,92.5,260.8,215.8,339.7,356.8c35.9,64.2,62.5,129.6,79,194.5c16.1,63.5,21.9,123.8,17.3,179.3
				c-9.4,112.9-62.2,195.5-148.5,232.7C1846,2198.5,1805.8,2206,1761.3,2206z"/>
		</g>
	</g>
	<g>
		<g>
			<path class="st0" d="M1772.4,2149.9c-46.9,0-99-7.9-155.2-23.5c-135.7-37.7-294.4-119.7-471.7-243.9l0.4-0.6
				c177.3,124.1,335.9,206.1,471.5,243.8c61.4,17.1,118,24.9,168.2,23.2c47.3-1.5,89.3-11.5,124.7-29.6
				c81.8-41.7,127.9-126.8,129.8-239.6c1-55.8-8.7-115.7-28.7-178.3c-20.4-63.9-50.8-127.6-90.2-189.2
				c-86.7-135.7-209.4-250-355-330.7c-217.1-120.3-425.5-189.4-627-256.3c-184.4-61.2-358.5-118.9-509.1-209.2
				C349.8,667.9,281.7,614,221.9,551.3c-66.3-69.5-121.4-148.8-168.7-242.4l0.7-0.3C101,402,156.2,481.3,222.4,550.7
				c59.8,62.7,127.8,116.6,208.1,164.7c150.5,90.2,324.6,148,508.9,209.1c201.6,66.9,410,136,627.2,256.3
				c145.6,80.7,268.5,195.1,355.2,330.9c39.4,61.7,69.8,125.5,90.3,189.4c20,62.6,29.7,122.7,28.7,178.5
				c-1,55.1-12.2,103.6-33.6,144.2c-22.3,42.4-54.8,74.7-96.7,96.1c-35.5,18.1-77.6,28.1-125,29.6
				C1781.3,2149.8,1776.8,2149.9,1772.4,2149.9z"/>
		</g>
	</g>
	<g>
		<g>
			<path class="st0" d="M1775.4,2093.1c-36.6,0-76.5-4.4-118.9-13.1c-130.2-26.9-285-94.2-459.9-200.2l0.4-0.6
				c174.9,106,329.5,173.3,459.7,200.2c59.1,12.2,113.1,15.9,160.5,11.1c44.7-4.6,84-16.8,116.6-36.3
				c77.8-46.5,117.5-134.5,111.8-247.9c-2.8-55.8-16.3-115.2-40.1-176.4c-24.3-62.5-58.2-123.9-100.8-182.7
				c-44.8-61.8-97.7-118.5-157.3-168.5c-63.9-53.6-134.4-98.6-209.7-133.8c-216-100.9-419.4-151.6-616.2-200.7
				c-180-44.9-350-87.2-500.4-164c-80.2-41-149.4-88.8-211.3-146.1C141.1,570.5,82.2,496.3,29.6,407.2l0.6-0.4
				C82.8,495.8,141.7,570,210.3,633.4c61.9,57.3,131,105,211.1,146c150.3,76.8,320.3,119.1,500.2,164
				c196.8,49,400.3,99.8,616.3,200.7c75.3,35.2,145.9,80.2,209.8,133.9c59.6,50.1,112.6,106.8,157.5,168.6
				c42.6,58.8,76.6,120.3,100.9,182.9c23.8,61.3,37.4,120.7,40.2,176.6c5.8,113.7-34.1,202-112.1,248.6
				c-32.8,19.6-72.1,31.8-116.9,36.4C1803.8,2092.4,1789.8,2093.1,1775.4,2093.1z"/>
		</g>
	</g>
	<g>
		<g>
			<path class="st0" d="M1769.7,2036.4c-25.1,0-51.6-1.9-79.3-5.6c-124.3-16.6-274.2-69.9-445.5-158.4l0.3-0.6
				c171.2,88.5,321,141.8,445.2,158.4c56.5,7.5,107.8,7.4,152.3-0.4c42.1-7.4,78.6-21.7,108.6-42.5
				c74.1-51.5,107.3-142.9,93.5-257.3c-6.7-55.5-24.1-113.8-51.5-173.2c-28-60.5-65.2-119.3-110.6-174.7
				c-47.7-58.2-102.9-110.5-163.9-155.6c-65.4-48.3-136.6-87.3-211.4-116c-213.3-81.7-410.5-114.5-601.2-146.2
				c-174.5-29-339.3-56.4-488.4-119.8c-79.5-33.8-149.1-75.4-212.6-127.1c-70.4-57.3-132.5-126-189.8-210.2l0.6-0.4
				c57.3,84.1,119.3,152.9,189.6,210.1c63.5,51.6,133,93.2,212.4,127c149,63.4,313.7,90.8,488.2,119.7
				c190.8,31.7,388,64.5,601.4,146.2c74.9,28.7,146.1,67.8,211.6,116.1c61.1,45.1,116.3,97.5,164,155.7
				c45.4,55.4,82.7,114.2,110.7,174.8c27.5,59.4,44.8,117.8,51.6,173.4c13.9,114.7-19.4,206.3-93.8,257.9
				c-30,20.9-66.7,35.2-108.9,42.6C1820.1,2034.4,1795.7,2036.4,1769.7,2036.4z"/>
		</g>
	</g>
	<g>
		<g>
			<path class="st0" d="M1754.6,1980.6c-11.7,0-23.6-0.4-35.8-1.1c-118-6.9-262.3-46.8-428.8-118.6l0.3-0.6
				c166.4,71.8,310.6,111.7,428.6,118.6c53.8,3.1,102.2-0.7,143.9-11.3c39.4-10,73.2-26.3,100.5-48.3c70.6-56.9,97-152,74.4-267.7
				c-10.7-54.9-31.8-111.6-62.7-168.5c-31.5-58.1-71.7-113.6-119.4-165c-50.2-54.1-107-101.6-168.8-141.4
				c-66.3-42.6-137.2-75.4-210.9-97.6c-93.5-28.1-192.4-49.2-302.2-64.7c-97-13.6-190.2-21.2-280.3-28.6
				c-168-13.7-326.6-26.6-473.3-76.8c-78.3-26.8-147.7-62.1-212.3-108.1C136.2,750,71.6,686.9,10.2,608.1l0.6-0.4
				c61.3,78.8,125.9,141.9,197.4,192.8c64.5,45.9,133.9,81.2,212.1,108c146.6,50.1,305.2,63.1,473.1,76.7
				c90.1,7.3,183.3,14.9,280.4,28.6c109.9,15.4,208.8,36.6,302.3,64.7c73.7,22.1,144.7,55,211.1,97.6
				c61.9,39.8,118.7,87.4,168.9,141.5c47.8,51.5,88,107,119.5,165.2c30.9,57,52.1,113.8,62.8,168.7c22.7,116-3.8,211.3-74.6,268.4
				c-27.4,22.1-61.3,38.4-100.8,48.4C1830.6,1976.5,1794.3,1980.6,1754.6,1980.6z"/>
		</g>
	</g>
	<g>
		<g>
			<path class="st0" d="M1729.5,1926.6c-109.2,0-242.9-27.3-397.6-81.1l0.2-0.6c160.7,55.9,298.7,83.2,410.1,80.9
				c99.8-2,176.3-27.3,227.5-75.2c67.1-62.8,86.3-162,53.9-279.3c-14.8-53.7-39.6-108.3-73.6-162.3c-34.7-55.1-77.4-106.8-127-153.8
				c-52.1-49.4-109.9-91.8-171.8-126c-66.4-36.6-136.4-63.1-208-78.7c-91.1-19.8-186.6-32.3-292.1-38.1c-93.2-5.1-182.2-4.6-268.3-4
				c-160.5,1-312.1,2-455.4-35.2c-76.5-19.9-145.3-49-210.4-89.2C145,839.5,78.5,782.2,13.7,709l0.5-0.5
				c64.7,73.2,131.2,130.4,203.2,174.8c65,40.1,133.8,69.3,210.2,89.1c143.2,37.2,294.8,36.2,455.2,35.2c86.1-0.5,175.2-1.1,268.4,4
				c105.5,5.8,201.1,18.3,292.2,38.1c71.7,15.6,141.8,42.1,208.2,78.8c62,34.2,119.8,76.6,171.9,126.1c49.6,47,92.3,98.9,127.1,154
				c34.1,54.1,58.9,108.7,73.7,162.5c15.6,56.7,19.3,109.4,11,156.6c-8.8,49.7-30.7,91.2-65.1,123.4c-51.3,48.1-128,73.4-228,75.4
				C1738,1926.6,1733.8,1926.6,1729.5,1926.6z"/>
		</g>
	</g>
	<g>
		<g>
			<path class="st0" d="M1692.4,1875.4c-91.7,0-199.6-16.4-322.1-48.9l0.2-0.6c154.3,41,285.6,56.3,390.2,45.5
				c93.8-9.7,164.6-39.9,210.4-89.9c32.4-35.4,51.2-79.6,56-131.5c4.5-49.3-3.7-103.2-24.4-160.4c-18.8-51.9-47.1-103.9-83.9-154.3
				c-37.6-51.5-82.4-98.9-133.1-141.1c-53.3-44.3-111.5-81.2-172.7-109.6c-65.7-30.4-133.9-50.5-202.8-59.8
				c-88-11.8-179.7-15.9-280.3-12.5c-88.8,3-173.3,11.3-254.9,19.4c-152.2,15-295.9,29.2-435,4.6c-74.2-13.1-141.9-36.2-207-70.5
				c-72.1-38-140-89.3-207.5-156.6l0.5-0.5C93.3,876,161.1,927.2,233.2,965.2c65,34.3,132.7,57.3,206.8,70.4
				c139,24.6,282.7,10.4,434.8-4.6c81.7-8,166.1-16.4,255-19.4c100.6-3.4,192.3,0.7,280.4,12.5c69,9.3,137.2,29.4,203,59.8
				c61.3,28.4,119.5,65.3,172.9,109.6c50.8,42.2,95.6,89.7,133.2,141.2c36.9,50.5,65.2,102.5,84,154.5
				c20.8,57.3,29,111.4,24.5,160.7c-4.8,52.1-23.7,96.4-56.1,131.9c-45.9,50.1-116.8,80.5-210.8,90.1
				C1739.1,1874.3,1716.3,1875.4,1692.4,1875.4z"/>
		</g>
	</g>
	<g>
		<g>
			<path class="st0" d="M1641.2,1828.2c-70.1,0-149-7.9-235.9-23.8l0.1-0.6c147.4,26.9,271.6,31,369.2,12.3
				c87.7-16.9,152.7-51.8,193-103.8c30.3-39,45.8-86.4,46-140.9c0.2-51.6-13.1-107-39.5-164.5c-22.8-49.6-54.2-98.1-93.4-144.4
				c-40-47.2-86.3-89.9-137.6-126.8c-112.8-81.1-239.6-127.2-366.8-133.4c-84.5-4.1-171.8-0.2-267,12
				c-84,10.8-163.4,26.4-240.2,41.5c-143.1,28.2-278.4,54.8-412.3,42.5c-71.5-6.6-137.6-23.7-202.2-52.2
				c-71.6-31.6-140.2-76.7-209.9-137.9l0.4-0.5c69.6,61.1,138.2,106.2,209.7,137.8c64.5,28.5,130.6,45.6,202,52.1
				c133.9,12.3,269-14.3,412.2-42.5c76.8-15.1,156.2-30.8,240.3-41.5c95.2-12.2,182.5-16.1,267.1-12c65.5,3.2,131.2,17,195.4,41.1
				c59.9,22.5,117.7,53.6,171.7,92.4c51.3,36.9,97.6,79.6,137.7,126.9c39.2,46.3,70.7,95,93.5,144.6
				c26.5,57.7,39.8,113.1,39.6,164.8c-0.3,54.6-15.8,102.1-46.1,141.3c-40.5,52.1-105.5,87.1-193.4,104
				C1734.6,1824.3,1690.1,1828.2,1641.2,1828.2z"/>
		</g>
	</g>
	<g>
		<g>
			<path class="st0" d="M1572.4,1786.2c-42.5,0-87.8-2.4-135.8-7.1l0.1-0.6c140.1,13.8,257,7.4,347.6-18.9
				c81.5-23.7,140.5-63,175.4-116.8c27.9-43,39.5-93.7,34.6-150.8c-4.6-53.3-24.1-111.4-56.4-168.2
				c-54.1-94.9-139.9-181.4-241.7-243.6c-112.3-68.7-234.5-102.4-353.6-97.6c-80.5,3.3-163,14.8-252.3,35.2
				c-78.8,18-152.9,40.5-224.5,62.3c-132.4,40.2-257.5,78.3-384.6,78.3c-1,0-2.1,0-3.1,0c-68.4-0.3-132.6-11.6-196.2-34.4
				c-70.5-25.3-139.4-64.2-210.6-119.1l0.4-0.5c71.1,54.8,139.9,93.7,210.4,119c63.6,22.8,127.7,34,196,34.3c1,0,2.1,0,3.1,0
				c127,0,252-38,384.4-78.2c71.6-21.8,145.7-44.3,224.5-62.3c89.3-20.4,171.8-32,252.4-35.2c119.1-4.9,241.5,28.9,353.9,97.6
				c101.9,62.3,187.8,148.9,241.9,243.9c32.4,56.9,52,115.1,56.5,168.5c4.9,57.3-6.8,108.2-34.7,151.2c-35,54-94.2,93.4-175.8,117.1
				C1724.8,1777.5,1653.9,1786.2,1572.4,1786.2z"/>
		</g>
	</g>
	<g>
		<g>
			<path class="st0" d="M1480.9,1751.4c-5.5,0-11.1,0-16.7-0.1l0-0.6c132.6,1.5,242.1-14.7,325.5-48c75.1-30,128.1-73.5,157.6-129.2
				c25-47.2,32.2-101.5,21.4-161.2c-10-55.6-36-114.7-75.2-170.8c-60.6-86.9-148.9-162.5-248.5-213c-110-55.7-226.2-77.4-336.1-62.5
				c-76.1,10.3-153.5,28.9-236.4,57.1c-73.3,24.8-141.7,53.7-207.8,81.6c-123.3,52.1-239.7,101.2-361.3,111.8
				c-64.9,5.6-126.7,0-189-17.1c-69-19-137.6-51.8-209.7-100.3l0.3-0.5c72,48.4,140.5,81.2,209.5,100.2
				c62.2,17.1,124,22.7,188.8,17.1c121.5-10.5,237.9-59.7,361.1-111.7c66.1-27.9,134.5-56.8,207.8-81.7
				c83-28.1,160.4-46.8,236.6-57.1c110-14.9,226.3,6.8,336.4,62.6c99.7,50.5,188.1,126.3,248.8,213.2
				c39.2,56.2,65.3,115.4,75.3,171.1c10.8,59.9,3.5,114.2-21.5,161.6c-29.5,55.8-82.6,99.4-157.9,129.5
				C1710,1735.2,1606.1,1751.4,1480.9,1751.4z"/>
		</g>
	</g>
	<g>
		<g>
			<path class="st0" d="M1488.1,1721.2l0-0.6c125.1-10,227.1-35.4,303.3-75.4c68.7-36.1,115.6-83.5,139.4-140.9
				c10.8-26.1,16.7-54.3,17.6-83.7c0.8-28.2-3-57.7-11.4-87.7c-16.2-57.6-49.2-116.9-95.6-171.4c-65.9-77.5-155-141.4-250.9-180
				c-106-42.7-214.8-52.8-314.7-29.2c-71.4,16.9-143.2,42.2-219.6,77.5c-67.5,31.1-130,65.9-190.4,99.4
				C753,1191.8,646.6,1251,532,1272.1c-61.1,11.3-120.2,11.1-180.8-0.6c-67-12.9-134.8-39.6-207.2-81.6l0.3-0.5
				c72.3,42,140.1,68.6,207.1,81.5c60.4,11.7,119.5,11.9,180.5,0.6c114.4-21.1,220.8-80.2,333.4-142.8
				c60.4-33.6,122.9-68.3,190.4-99.5c76.4-35.3,148.3-60.6,219.7-77.5c100-23.6,208.9-13.6,315.1,29.2
				c96,38.7,185.2,102.7,251.2,180.2c46.5,54.6,79.6,114,95.7,171.7c8.4,30,12.3,59.6,11.5,87.8c-0.8,29.5-6.8,57.7-17.6,83.9
				c-23.9,57.5-70.8,105.1-139.6,141.2C1715.4,1685.8,1613.2,1711.2,1488.1,1721.2z"/>
		</g>
	</g>
	<g>
		<g>
			<path class="st0" d="M1508.2,1689.1l-0.1-0.6c117.6-20.8,212.2-54.9,281.1-101.2c62.1-41.8,102.8-93,120.7-152.1
				c8.6-28.4,11.9-58.5,9.7-89.5c-2.1-29.7-9.2-60.3-21.1-91c-22.9-59.1-63.4-117.6-117-169.1C1712.1,1018.8,1623.8,967,1533,940
				c-100.5-29.9-200.8-29.3-290.2,1.7c-66.3,23-132.3,54.5-201.9,96.3c-61.4,36.9-117.8,76.9-172.4,115.7
				C766.8,1225.8,670.8,1294,563.9,1325c-57.1,16.5-113.2,21.5-171.6,15.2c-64.7-7-131.2-27.7-203.4-63.2l0.3-0.5
				c72.1,35.5,138.6,56.2,203.2,63.2c58.3,6.3,114.4,1.4,171.3-15.1c106.8-31,202.8-99.1,304.4-171.3
				c54.5-38.7,111-78.8,172.4-115.7c69.6-41.8,135.7-73.3,202-96.4c89.5-31.1,190-31.7,290.6-1.7c90.9,27.1,179.3,78.8,248.8,145.7
				c53.7,51.6,94.2,110.2,117.1,169.4c11.9,30.7,19,61.4,21.1,91.1c2.2,31.1-1.1,61.3-9.8,89.7c-18,59.2-58.7,110.5-121,152.4
				C1720.5,1634.2,1625.9,1668.3,1508.2,1689.1z"/>
		</g>
	</g>
	<g>
		<g>
			<path class="st0" d="M1524.7,1655.4l-0.2-0.6c110.2-31.1,197.3-73.4,258.9-125.9c55.5-47.3,89.7-102,101.6-162.7
				c6-30.5,6.2-62.3,0.6-94.6c-5.3-30.9-15.9-62.2-31.5-93c-30.1-59.6-77.9-115.9-138.2-163c-35.1-27.4-73.4-50.7-113.8-69.5
				c-41.7-19.4-84.6-33.4-127.7-41.6c-45.3-8.7-90.1-10.8-133.2-6.5c-45.9,4.6-89.7,16.7-130.3,35.8c-61,28.7-121,65.9-183.6,113.5
				c-55.2,42.1-105.4,86.9-153.9,130.2c-90.5,80.8-175.9,157.1-274.8,197.3c-52.8,21.5-105.6,31.3-161.5,30
				c-62-1.4-126.8-16.2-198.2-45.3l0.2-0.5c71.4,29.1,136.1,43.9,198,45.2c55.8,1.2,108.6-8.6,161.3-30
				c98.8-40.2,184.2-116.4,274.6-197.2c48.5-43.3,98.7-88.1,154-130.3c62.6-47.7,122.6-84.9,183.7-113.6
				c40.7-19.2,84.6-31.2,130.5-35.9c43.2-4.4,88.1-2.2,133.4,6.5c43.1,8.3,86.2,22.3,127.9,41.6c40.5,18.8,78.8,42.2,113.9,69.6
				c60.4,47.1,108.2,103.5,138.3,163.2c15.6,30.9,26.2,62.2,31.5,93.1c5.6,32.4,5.4,64.3-0.6,94.8c-11.9,60.8-46.2,115.7-101.8,163
				C1722.1,1581.9,1634.9,1624.3,1524.7,1655.4z"/>
		</g>
	</g>
	<g>
		<g>
			<path class="st0" d="M1537.5,1620.3l-0.2-0.5c102.9-41,182.5-91.3,236.6-149.5c48.7-52.5,76.2-110.6,81.7-172.7
				c5.6-63.1-12.3-129.3-51.7-191.5c-37.3-58.8-91.8-111.5-157.6-152.3c-72-44.6-151.7-71.6-230.4-78.1c-41.7-3.4-82.4-0.9-121,7.4
				c-41,8.8-79.7,24.3-115,45.9c-55.5,33.9-109.4,76.2-164.7,129.1c-48.9,46.8-92.8,95.8-135.2,143.2
				c-79.1,88.3-153.9,171.8-244.3,220.5c-48.3,26-97.6,40.4-150.8,44c-58.9,4-121.7-5.1-191.8-27.8l0.2-0.5
				c70.1,22.7,132.8,31.8,191.6,27.8c53.1-3.6,102.3-18,150.5-43.9c90.4-48.6,165.1-132,244.2-220.3
				c42.5-47.4,86.4-96.4,135.3-143.2c55.4-53,109.3-95.2,164.8-129.2c35.4-21.6,74.1-37.1,115.2-45.9c38.7-8.3,79.5-10.9,121.2-7.5
				c78.9,6.4,158.6,33.4,230.7,78.1c65.9,40.9,120.5,93.6,157.8,152.5c39.4,62.3,57.3,128.6,51.7,191.8c-5.5,62.3-33,120.5-81.8,173
				C1720.2,1529,1640.5,1579.3,1537.5,1620.3z"/>
		</g>
	</g>
	<g>
		<g>
			<path class="st0" d="M1546.7,1584.3l-0.3-0.5c95.7-50.5,167.8-108.6,214.2-172.5c41.8-57.5,62.3-118.7,61-182
				c-1.3-65.5-26.5-131.6-72.8-191.2c-21.9-28.1-48-54.2-77.7-77.6c-29.4-23.2-61.7-43.2-96-59.6c-70.2-33.5-145-50-216.4-47.6
				c-37.9,1.2-74.4,7.8-108.6,19.5c-36.2,12.4-69.9,30.5-100.1,54c-49.8,38.6-97.4,85.4-145.6,143
				c-42.5,50.8-80.1,103.5-116.4,154.4c-67.7,94.9-131.7,184.5-213.5,240.9c-43.6,30.1-89.2,48.7-139.4,57
				c-55.5,9.2-115.8,5.6-184.3-11l0.1-0.5c68.4,16.5,128.6,20.1,184.1,11c50.1-8.2,95.6-26.9,139.2-56.9
				c81.7-56.3,145.7-145.9,213.4-240.8c36.3-50.9,73.9-103.6,116.4-154.4c48.2-57.6,95.8-104.4,145.7-143
				c30.3-23.5,64.1-41.7,100.3-54.1c34.2-11.7,70.8-18.3,108.8-19.5c71.5-2.3,146.4,14.2,216.6,47.7c34.4,16.4,66.7,36.5,96.1,59.7
				c29.7,23.4,55.9,49.6,77.8,77.7c46.4,59.6,71.6,125.8,72.9,191.5c1.3,63.4-19.3,124.8-61.1,182.3
				C1714.7,1475.7,1642.5,1533.7,1546.7,1584.3z"/>
		</g>
	</g>
	<g>
		<g>
			<path class="st0" d="M492.9,1585.7c-25.6,0-52.5-2.3-81.1-6.8l0.1-0.5c66.3,10.5,123.7,8.8,175.6-5.1
				c46.8-12.6,88.5-35.1,127.3-68.8c72.8-63.2,126.1-158.1,182.4-258.5c30.3-53.9,61.5-109.6,97.7-164
				c40.9-61.6,82.2-112.3,126.3-155.2c25.7-24.9,54.7-45.3,86.4-60.6c30-14.5,62.5-24.4,96.6-29.6c64.2-9.8,133.7-2.6,200.9,20.7
				c35.2,12.2,69,28.6,100.4,48.7c31.6,20.2,60.2,43.7,84.8,69.8c52.2,55.3,84.4,119.7,93.2,186.2c8.4,64.2-4.8,128.4-39.5,190.7
				c-38.5,69.4-103,135-191.5,195l-0.3-0.4c88.5-60,152.9-125.5,191.4-194.8c34.5-62.2,47.8-126.2,39.4-190.3
				c-8.7-66.4-40.9-130.7-93-185.9c-24.6-26.1-53.1-49.5-84.7-69.7c-31.4-20-65.2-36.4-100.3-48.6c-67.1-23.3-136.5-30.5-200.6-20.7
				c-34.1,5.2-66.5,15.2-96.5,29.6c-31.6,15.2-60.6,35.6-86.3,60.5c-44.1,42.8-85.4,93.6-126.2,155.1
				c-36.1,54.4-67.4,110.1-97.6,164c-56.4,100.4-109.7,195.3-182.6,258.6c-38.9,33.8-80.6,56.3-127.5,68.9
				C558,1581.7,526.7,1585.7,492.9,1585.7z"/>
		</g>
	</g>
	<g>
		<g>
			<path class="st0" d="M513.5,1642.6c-12.4,0-25.1-0.5-38.3-1.5l0-0.5c63.8,4.7,118.1-2,166.2-20.4c43.4-16.6,81-42.7,115.1-79.6
				c63.9-69.3,106.5-168.4,151.6-273.4c24.2-56.3,49.3-114.6,79-171.9c33.7-64.9,68.7-119.1,107-165.6c21.4-26,46.2-48.2,73.7-65.8
				c26-16.7,54.7-29.5,85.2-38.1c57.3-16.1,121.2-16.9,184.7-2.5c35,8,69.3,20.3,101.7,36.8c32.6,16.5,62.6,36.8,89.3,60.2
				c56.5,49.5,94.9,110.3,111.1,176c15.9,64.4,10.2,130.9-16.9,197.6c-30.3,74.5-86.8,147.4-167.9,216.7l-0.3-0.4
				c81.1-69.3,137.5-142.1,167.8-216.5c27.1-66.6,32.7-133,16.9-197.3c-16.2-65.5-54.5-126.3-110.9-175.7
				c-26.7-23.4-56.7-43.6-89.2-60.1c-32.5-16.5-66.6-28.8-101.6-36.8c-63.4-14.4-127.2-13.5-184.4,2.5c-30.4,8.5-59,21.3-85,38
				c-27.4,17.6-52.1,39.7-73.5,65.7c-38.3,46.5-73.2,100.7-106.9,165.5c-29.7,57.3-54.8,115.5-79,171.8
				c-45.2,105-87.8,204.1-151.7,273.5c-34.1,37-71.8,63.1-115.3,79.8C603.4,1635.3,561.3,1642.6,513.5,1642.6z"/>
		</g>
	</g>
	<g>
		<g>
			<path class="st0" d="M540.7,1697.6l0-0.5c60.9-0.9,111.9-12.3,155.9-34.8c39.8-20.3,73.3-49.6,102.6-89.4
				c54.8-74.6,87.1-177.1,121.2-285.6c18.3-58.2,37.3-118.4,60.7-178.1c26.6-67.6,55.3-124.6,87.7-174.3
				c34.6-53,80.6-91.7,136.8-115.2c50.9-21.3,109.3-28.9,168.8-22.2c33.9,3.8,67.6,12.2,100.2,24.9c32.6,12.7,63.3,29.3,91.2,49.5
				c58.9,42.6,102.3,98.3,125.5,161.3c11.3,30.7,17.7,62.9,19,95.9c1.4,34.8-2.9,70.8-12.7,106.8c-21.6,79.1-69.9,159.1-143.3,237.6
				l-0.4-0.3c73.4-78.4,121.6-158.3,143.2-237.3c9.8-36,14.1-71.8,12.7-106.6c-1.3-32.9-7.7-65.1-19-95.7
				c-23.1-62.8-66.5-118.5-125.3-161c-27.9-20.2-58.5-36.8-91.1-49.4c-32.5-12.6-66.2-21-100-24.8c-59.4-6.7-117.7,0.9-168.6,22.2
				c-56.1,23.4-102,62.1-136.6,115c-32.4,49.7-61.1,106.6-87.7,174.2c-23.5,59.7-42.4,119.9-60.7,178.1
				c-34.1,108.5-66.4,211-121.3,285.7c-29.3,39.9-62.9,69.2-102.7,89.5C652.7,1685.3,601.6,1696.7,540.7,1697.6z"/>
		</g>
	</g>
	<g>
		<g>
			<path class="st0" d="M607.4,1748.2l-0.1-0.5c57.7-6.2,105.1-22,145.1-48.2c36-23.7,65.4-55.8,89.9-98
				c45.8-79.1,67.9-184,91.3-295c12.5-59.6,25.5-121.2,42.8-182.7c19.6-69.6,42.1-128.9,68.8-181.3c27.8-54.5,67.1-96.5,116.8-124.8
				c44.7-25.4,97.4-38.9,152.5-38.9c0.5,0,1,0,1.5,0c32,0.1,64.4,4.7,96.2,13.6c31.7,8.9,62.2,21.8,90.5,38.5
				c59.5,35.1,106.4,84.6,135.6,143.2c14.9,29.9,25,61.9,30.2,95.2c5.4,35.3,5.3,72.4-0.5,110.1c-12.7,83.2-52.3,169.6-117.5,257
				l-0.4-0.3c65.2-87.3,104.7-173.7,117.4-256.8c5.8-37.7,5.9-74.6,0.5-109.9c-5.1-33.3-15.3-65.3-30.1-95.1
				c-29.2-58.5-76-107.9-135.4-143c-28.3-16.7-58.7-29.6-90.4-38.5c-31.7-8.9-64.1-13.5-96-13.6c-0.5,0-1,0-1.5,0
				c-55,0-107.6,13.4-152.2,38.8c-49.7,28.2-88.9,70.1-116.6,124.6c-26.6,52.3-49.1,111.6-68.7,181.2
				c-17.3,61.5-30.3,123.1-42.8,182.7c-23.4,111.1-45.5,216-91.3,295.2c-24.5,42.3-53.9,74.4-90,98.1
				C712.7,1726.2,665.2,1742,607.4,1748.2z"/>
		</g>
	</g>
</g>
</svg>
