<?xml version="1.0" encoding="utf-8"?>
<!-- Generator: Adobe Illustrator 26.1.0, SVG Export Plug-In . SVG Version: 6.00 Build 0)  -->
<svg version="1.1" id="Ebene_1" xmlns="http://www.w3.org/2000/svg" xmlns:xlink="http://www.w3.org/1999/xlink" x="0px" y="0px"
	 viewBox="0 0 16 16" style="enable-background:new 0 0 16 16;" xml:space="preserve">
<style type="text/css">
	.st0{fill:none;stroke:#FFFFFF;}
</style>
<g id="Gruppe_1514" transform="translate(-25.072 -25.103)">
	<path id="Pfad_955" class="st0" d="M35.8,40.6c-2.1,0-4.3-1.2-6.7-3.5c-2.7-2.7-3.9-5.3-3.5-7.6c0.3-1.5,1.2-2.8,2.5-3.5
		c0.4-0.3,0.9-0.4,1.4-0.3c0.7,0.2,1.1,1,1.6,2.1c0.1,0.3,0.3,0.6,0.4,0.8c0.5,0.7,0.3,1.7-0.4,2.2c0,0-0.1,0-0.1,0.1
		c-0.2,0.1-0.3,0.3-0.5,0.4c-0.3,0.2-0.6,0.3-0.5,0.6c0.8,2,2.4,3.6,4.4,4.4c0.3,0.1,0.5-0.2,0.6-0.4c0.1-0.2,0.3-0.4,0.4-0.6
		c0.5-0.8,1.5-1,2.2-0.5c0,0,0,0,0,0c0.3,0.2,0.6,0.3,0.8,0.4c1,0.5,1.8,0.9,2.1,1.6c0.1,0.5,0,1-0.3,1.4c-0.8,1.3-2.1,2.2-3.5,2.5
		C36.4,40.6,36.1,40.6,35.8,40.6z"/>
</g>
</svg>
