<?xml version="1.0" encoding="utf-8"?>
<!-- Generator: Adobe Illustrator 26.1.0, SVG Export Plug-In . SVG Version: 6.00 Build 0)  -->
<svg version="1.1" id="Ebene_1" xmlns="http://www.w3.org/2000/svg" xmlns:xlink="http://www.w3.org/1999/xlink" x="0px" y="0px"
	 viewBox="0 0 30.1 30" style="enable-background:new 0 0 30.1 30;" xml:space="preserve">
<style type="text/css">
	.st0{fill:#0B1B4C;}
</style>
<g id="Gruppe_1533" transform="translate(0 -0.1)">
	<g id="Gruppe_682" transform="translate(0 0.1)">
		<g id="Gruppe_681">
			<path id="Pfad_409" class="st0" d="M30.1,15c0-8.3-6.7-15.1-15-15.1S0,6.7,0,15c0,7.4,5.4,13.8,12.7,14.9V19.4H8.9V15h3.8v-3.3
				c0-3.8,2.2-5.8,5.7-5.8c1.1,0,2.3,0.1,3.4,0.3v3.7H20c-1.1-0.2-2.2,0.6-2.4,1.8c0,0,0,0.1,0,0.1v3.3h4.2l-0.7,4.3h-3.5V30
				C24.8,28.7,30.1,22.4,30.1,15"/>
		</g>
	</g>
</g>
</svg>
