<?xml version="1.0" encoding="utf-8"?>
<!-- Generator: Adobe Illustrator 26.1.0, SVG Export Plug-In . SVG Version: 6.00 Build 0)  -->
<svg version="1.1" id="Ebene_1" xmlns="http://www.w3.org/2000/svg" xmlns:xlink="http://www.w3.org/1999/xlink" x="0px" y="0px"
	 viewBox="0 0 160 160" style="enable-background:new 0 0 160 160;" xml:space="preserve">
<style type="text/css">
	.st0{fill:#1265EA;}
	.st1{fill:none;stroke:#FFFFFF;}
	.st2{clip-path:url(#SVGID_00000131335433157042769540000017382039383251330983_);}
	.st3{clip-path:url(#SVGID_00000006710363346190866770000008748973448318762882_);}
</style>
<g id="Gruppe_1531" transform="translate(32 -3566)">
	<circle id="Ellipse_75" class="st0" cx="48" cy="3646" r="80"/>
	<g id="Gruppe_1530" transform="translate(8 3616)">
		<g id="Gruppe_1302" transform="translate(4.582 45.686)">
			<path id="Pfad_820" class="st1" d="M0,0"/>
		</g>
		<g id="Gruppe_1562" transform="translate(0 59.796)">
			<g>
				<defs>
					<rect id="SVGID_1_" x="0" y="-59.7" width="80" height="59.8"/>
				</defs>
				<clipPath id="SVGID_00000153690242303994540150000012675468902147095480_">
					<use xlink:href="#SVGID_1_"  style="overflow:visible;"/>
				</clipPath>
				<g id="Gruppe_1554" style="clip-path:url(#SVGID_00000153690242303994540150000012675468902147095480_);">
					<g id="Gruppe_1552" transform="translate(6.169 -59.296)">
						<path id="Pfad_967" class="st1" d="M0,0.1c-3.1,0-5.7,2.5-5.7,5.7l0,0v47.5c0,3.1,2.5,5.7,5.7,5.7c0,0,0,0,0,0h67.7
							c3.1,0,5.7-2.5,5.7-5.7V5.8c0-3.1-2.5-5.7-5.7-5.7H0z"/>
					</g>
					<g id="Gruppe_1553" transform="translate(0.3 -46.256)">
						<path id="Pfad_968" class="st1" d="M0,0.1h79.4"/>
					</g>
				</g>
			</g>
			<g id="Gruppe_1555" transform="translate(28.154 -16.312)">
				<path id="Pfad_970" class="st1" d="M0,0.1l-6.6-6.9l6.5-6.8"/>
			</g>
			<g id="Gruppe_1556" transform="translate(51.846 -16.312)">
				<path id="Pfad_971" class="st1" d="M0,0.1l6.6-6.9l-6.5-6.8"/>
			</g>
			<g id="Gruppe_1557" transform="translate(43.763 -37.916)">
				<path id="Pfad_972" class="st1" d="M0,0.1l-7.5,29.6"/>
			</g>
			<g>
				<defs>
					<rect id="SVGID_00000139263215196422897480000002388631398145450915_" x="0" y="-59.7" width="80" height="59.8"/>
				</defs>
				<clipPath id="SVGID_00000092417686963159512710000012397940471256618161_">
					<use xlink:href="#SVGID_00000139263215196422897480000002388631398145450915_"  style="overflow:visible;"/>
				</clipPath>
				<g id="Gruppe_1561" style="clip-path:url(#SVGID_00000092417686963159512710000012397940471256618161_);">
					<g id="Gruppe_1558" transform="translate(7.326 -50.807)">
						<path id="Pfad_973" class="st1" d="M0,0.1c1.2,0,2.1-1,2.1-2.1c0-1.2-0.9-2.1-2.1-2.1c0,0,0,0,0,0c-1.2,0-2.1,1-2.1,2.1
							c0,0,0,0,0,0C-2.1-0.8-1.2,0.1,0,0.1z"/>
					</g>
					<g id="Gruppe_1559" transform="translate(15.811 -50.807)">
						<path id="Pfad_974" class="st1" d="M0,0.1c1.2,0,2.1-1,2.1-2.1c0-1.2-0.9-2.1-2.1-2.1c0,0,0,0,0,0c-1.2,0-2.1,1-2.1,2.1
							c0,0,0,0,0,0C-2.1-0.8-1.2,0.1,0,0.1z"/>
					</g>
					<g id="Gruppe_1560" transform="translate(24.297 -50.807)">
						<path id="Pfad_975" class="st1" d="M0,0.1c1.2,0,2.1-1,2.1-2.1c0-1.2-0.9-2.1-2.1-2.1c0,0,0,0,0,0c-1.2,0-2.1,1-2.1,2.1
							c0,0,0,0,0,0C-2.1-0.8-1.2,0.1,0,0.1z"/>
					</g>
				</g>
			</g>
		</g>
	</g>
</g>
</svg>
