<?xml version="1.0" encoding="utf-8"?>
<!-- Generator: Adobe Illustrator 26.1.0, SVG Export Plug-In . SVG Version: 6.00 Build 0)  -->
<svg version="1.1" id="Ebene_1" xmlns="http://www.w3.org/2000/svg" xmlns:xlink="http://www.w3.org/1999/xlink" x="0px" y="0px"
	 viewBox="0 0 160 160" style="enable-background:new 0 0 160 160;" xml:space="preserve">
<style type="text/css">
	.st0{fill:#1265EA;}
	.st1{fill:none;stroke:#FFFFFF;}
</style>
<g id="Gruppe_1531" transform="translate(32 -3566)">
	<circle id="Ellipse_75" class="st0" cx="48" cy="3646" r="80"/>
</g>
<g id="Gruppe_1551" transform="translate(0 81.551)">
	<g>
		<g id="Gruppe_1550">
			<g id="Gruppe_1547" transform="translate(70.507 -32.862)">
				<path id="Pfad_963" class="st1" d="M40.6,39.2c-1-1.4-2.3-2.6-3.6-3.6l1.3-4.9l-6.7-2.8l-2.5,4.4c-1.7-0.3-3.4-0.3-5.1,0
					l-2.5-4.4l-6.7,2.8l1.3,4.9c-1.4,1-2.6,2.2-3.6,3.6l-4.9-1.3l-2.8,6.7l4.4,2.5c-0.3,1.7-0.3,3.4,0,5.1l-4.4,2.5l2.8,6.7l4.9-1.3
					c1,1.4,2.3,2.6,3.6,3.6l-1.3,4.9l6.7,2.8l2.5-4.4c1.7,0.3,3.4,0.3,5.1,0l2.5,4.4l6.7-2.8L37,63.8c1.4-1,2.6-2.3,3.6-3.6l4.9,1.3
					l2.8-6.7l-4.4-2.5c0.3-1.7,0.3-3.4,0-5.1l4.4-2.5l-2.8-6.7L40.6,39.2z M4.7,54.8l4.4-2.5c-0.3-1.7-0.3-3.4,0-5.1l-4.4-2.5
					l2.8-6.7l4.9,1.3c1-1.4,2.2-2.6,3.6-3.6l-1.3-4.9l6.7-2.8l2.5,4.4c1.4-0.2,2.8-0.2,4.2-0.1C26.1,18.6,24,3.7,24,3.5
					C24,3.2,23.7,3,23.5,3c-0.5,0-5.7-0.5-5.7-0.5s-3.8-3.7-4.3-4C13-2-19.7,8.2-21.9,8.9c-2,0.5-2,0.7-2.2,2.5
					c-0.2,1.2-5.2,40.4-5.2,40.4l35.7,6.7L4.7,54.8z M0.2,22.8C-1.5,22-3.2,21.6-5,21.6c-4.2,0-4.5,2.5-4.5,3.2
					c0,3.5,9.4,5,9.4,13.4c0,6.7-4.2,10.9-9.9,10.9c-3.8,0.1-7.5-1.4-10.2-4.2l1.7-6c0,0,3.5,3,6.4,3c1.4,0.1,2.6-1,2.7-2.4
					c0-0.1,0-0.2,0-0.3c0-4.7-7.7-5-7.7-12.6c0-6.4,4.7-12.7,13.9-12.7c4.2-0.2,6,1,6,1L0.2,22.8z"/>
			</g>
			<g id="Gruppe_1548" transform="translate(59.104 -15.882)">
				<path id="Pfad_964" class="st1" d="M40.6,39.2c3.6-1.5,5.3-5.6,3.8-9.2c-1.5-3.6-5.6-5.3-9.2-3.8c-3.6,1.5-5.3,5.6-3.8,9.2
					C32.9,39,37,40.7,40.6,39.2"/>
			</g>
			<g id="Gruppe_1549" transform="translate(59.104 -15.882)">
				<path id="Pfad_965" class="st1" d="M40.6,39.2c3.6-1.5,5.3-5.6,3.8-9.2c-1.5-3.6-5.6-5.3-9.2-3.8c-3.6,1.5-5.3,5.6-3.8,9.2
					C32.9,39,37,40.7,40.6,39.2 M15.7-16.2c-0.2-6-1.6-9.8-5.8-9.7C5.1-25.9-0.4-19.5-1.9-10.8 M21.4-18.1c-1.4-3.4-3.9-6.3-6.7-5.7
					c-4.2,0.9-6.3,3.6-8.5,10.3 M24.9-18.5l-2.2,40"/>
			</g>
		</g>
	</g>
</g>
</svg>
