<?xml version="1.0" encoding="utf-8"?>
<!-- Generator: Adobe Illustrator 26.1.0, SVG Export Plug-In . SVG Version: 6.00 Build 0)  -->
<svg version="1.1" id="Ebene_1" xmlns="http://www.w3.org/2000/svg" xmlns:xlink="http://www.w3.org/1999/xlink" x="0px" y="0px"
	 viewBox="0 0 30 30" style="enable-background:new 0 0 30 30;" xml:space="preserve">
<style type="text/css">
	.st0{fill:#0B1B4C;}
</style>
<path id="Differenzmenge_1" class="st0" d="M15,30C6.7,30,0,23.3,0,15S6.7,0,15,0c8.3,0,15,6.7,15,15c0,4-1.6,7.8-4.4,10.6
	c-1.4,1.4-3,2.4-4.7,3.2C19,29.6,17,30,15,30z M18.7,7.5c-0.3,0-0.5,0.2-0.6,0.4c-0.1,0.1-3.4,6.1-4.7,8.4l-0.4,0.7
	c0,0,3.3,6,3.3,6.1c0.1,0.3,0.4,0.5,0.7,0.4h2.3c0.1,0,0.2-0.1,0.3-0.1c0.1-0.1,0.1-0.3,0-0.4l-3.3-6l0,0L21.3,8
	c0.1-0.1,0.1-0.3,0-0.4c-0.1,0-0.2-0.1-0.4-0.1L18.7,7.5z M8.8,10.8c-0.2,0-0.3,0.1-0.4,0.3c0,0.1,0,0.2,0.1,0.2l1.6,2.7l0,0
	l-2.5,4.3c-0.1,0.1-0.1,0.3,0,0.4c0.1,0.1,0.2,0.1,0.3,0.1h2.3c0.3,0,0.5-0.2,0.6-0.4c0-0.1,2.4-4.3,2.5-4.4c0,0-0.9-1.5-1.3-2.3
	l-0.2-0.4c-0.1-0.3-0.4-0.4-0.7-0.4L8.8,10.8z"/>
</svg>
