<?xml version="1.0" encoding="utf-8"?>
<!-- Generator: Adobe Illustrator 26.1.0, SVG Export Plug-In . SVG Version: 6.00 Build 0)  -->
<svg version="1.1" id="Ebene_1" xmlns="http://www.w3.org/2000/svg" xmlns:xlink="http://www.w3.org/1999/xlink" x="0px" y="0px"
	 viewBox="0 0 30 30" style="enable-background:new 0 0 30 30;" xml:space="preserve">
<style type="text/css">
	.st0{fill:#0B1B4C;}
</style>
<g id="rss" transform="translate(-0.98 -0.975)">
	<g id="svg_1" transform="translate(0.98 0.975)">
		<path id="svg_2" class="st0" d="M14.3,0c-0.1,0-0.3,0-0.4,0c-0.2,0-0.4,0-0.5,0s-0.2,0-0.3,0s-0.4,0.1-0.6,0.1S12.1,0.3,12,0.3
			c-0.9,0.2-1.9,0.5-2.8,0.8L8.8,1.3C7.9,1.8,7,2.3,6.2,2.8C5.9,3,5.4,3.4,5.4,3.5c0,0-0.1,0.1-0.2,0.2C4.9,3.9,3.9,4.9,3.7,5.2
			C3.6,5.3,3.5,5.4,3.5,5.4C3.4,5.5,3.3,5.6,3.2,5.7C3.2,5.8,3.1,5.9,3.1,5.9c0,0-0.3,0.4-0.5,0.7C2.2,7.2,1.8,7.8,1.5,8.4
			c0,0.1-0.1,0.3-0.2,0.4c-0.5,1-0.8,2.1-1,3.2c0,0.1,0,0.2-0.1,0.4C0.1,13.3,0,14.1,0,15c0,0.9,0.1,1.7,0.2,2.6
			c0,0.2,0.1,0.3,0.1,0.4c0.2,1.1,0.6,2.2,1,3.2c0.1,0.1,0.2,0.3,0.2,0.4c0.4,0.8,0.8,1.5,1.3,2.2c0.2,0.2,0.6,0.8,0.7,0.9
			c0,0,0.1,0.1,0.2,0.2c0.5,0.5,0.9,1,1.4,1.4c0.1,0.1,0.3,0.2,0.3,0.3C5.5,26.6,6,27,6.3,27.2c1.4,1,2.9,1.7,4.5,2.2
			c0.3,0.1,0.6,0.2,0.6,0.2s0.3,0.1,0.5,0.1s0.6,0.1,0.8,0.1l0.5,0.1c1.2,0.1,2.5,0.1,3.7,0c0,0,0.2,0,0.3,0c0.3,0,0.7-0.1,1-0.2
			c0.2,0,0.4-0.1,0.5-0.1c0.7-0.2,1.4-0.4,2.1-0.7c0.1,0,0.2-0.1,0.3-0.1c0.9-0.4,1.8-0.9,2.6-1.4c0.1-0.1,0.2-0.1,0.3-0.2
			c0.9-0.7,1.8-1.5,2.6-2.4c0.2-0.2,0.4-0.5,0.8-1c0.1-0.2,0.6-0.9,0.8-1.2c0.4-0.8,0.8-1.6,1.1-2.4c0.1-0.4,0.4-1.3,0.5-1.5
			c0-0.1,0.1-0.3,0.1-0.5s0.1-0.6,0.1-0.8s0.1-0.4,0.1-0.5c0.1-1.2,0.1-2.5,0-3.7c0,0,0-0.3-0.1-0.5s-0.1-0.6-0.1-0.8
			s-0.1-0.4-0.1-0.5c0-0.2-0.3-1.1-0.5-1.5c-1-2.6-2.7-5-4.9-6.7c-0.2-0.1-0.4-0.3-0.4-0.3s-0.1-0.1-0.2-0.1
			c-0.7-0.5-1.4-0.9-2.1-1.2c-0.6-0.3-1.2-0.6-1.9-0.8c-0.5-0.2-1.4-0.4-1.7-0.5c-0.6-0.1-1.2-0.2-1.4-0.2c-0.1,0-0.2,0-0.4,0
			C16.1,0,14.3,0,14.3,0z M8.8,7c3.5,0.2,6.8,1.6,9.4,4c2.1,1.8,3.7,4.2,4.6,6.9c0.4,1.3,0.7,2.7,0.7,4c0,0.3,0,0.6,0,0.8l0,0.3H21
			l0-0.1c0,0,0-0.3,0-0.7c-0.1-1.9-0.6-3.8-1.5-5.5c-1.4-2.6-3.6-4.6-6.2-5.9c-1.5-0.7-3.1-1.1-4.8-1.2c-0.3,0-0.6,0-0.7,0H7.7V7
			h0.3C8.1,7,8.5,7,8.8,7L8.8,7z M9,12c2,0.2,3.9,1,5.4,2.2c0.7,0.6,1.3,1.2,1.8,1.8c0.9,1.1,1.6,2.5,2,3.9c0.2,0.8,0.3,1.7,0.3,2.5
			v0.4h-2.5l0-0.5c0-1.1-0.3-2.2-0.8-3.1c-0.4-0.8-0.9-1.6-1.6-2.2c-1.1-1.2-2.6-2.1-4.3-2.4c-0.5-0.1-1-0.2-1.5-0.2l-0.3,0v-2.5
			l0.4,0C8.3,12,8.8,12,9,12L9,12z M10.7,18.2c0.5,0.1,0.9,0.4,1.2,0.8c0.7,0.9,0.7,2.1,0,3c-0.4,0.6-1.1,0.9-1.8,0.9
			c-0.5,0-1.1-0.2-1.5-0.5c-0.4-0.3-0.7-0.7-0.8-1.2c-0.1-0.4-0.1-0.9,0-1.3C8,19,8.7,18.4,9.5,18.2C9.9,18.1,10.3,18.1,10.7,18.2
			L10.7,18.2z"/>
	</g>
</g>
</svg>
