<?xml version="1.0" encoding="utf-8"?>
<!-- Generator: Adobe Illustrator 26.1.0, SVG Export Plug-In . SVG Version: 6.00 Build 0)  -->
<svg version="1.1" id="Ebene_1" xmlns="http://www.w3.org/2000/svg" xmlns:xlink="http://www.w3.org/1999/xlink" x="0px" y="0px"
	 viewBox="0 0 30 30" style="enable-background:new 0 0 30 30;" xml:space="preserve">
<style type="text/css">
	.st0{fill:#0B1B4C;}
	.st1{fill:#FFFFFF;}
</style>
<g id="Gruppe_1620" transform="translate(-689 -5274)">
	<circle id="Ellipse_161" class="st0" cx="704" cy="5289" r="15"/>
	<path id="Pfad_985" class="st1" d="M711,5294.1h-2.7v-4.2c0-1,0-2.3-1.4-2.3c-1.4,0-1.6,1.1-1.6,2.2v4.3h-2.7v-8.7h2.6v1.2h0
		c0.5-0.9,1.5-1.4,2.6-1.4c2.7,0,3.2,1.8,3.2,4.1L711,5294.1z M699.6,5284.3L699.6,5284.3c-0.9,0-1.6-0.7-1.6-1.6s0.7-1.6,1.6-1.6
		s1.6,0.7,1.6,1.6l0,0l0,0C701.1,5283.6,700.4,5284.3,699.6,5284.3 M700.9,5294.1h-2.7v-8.7h2.7V5294.1z"/>
</g>
</svg>
