<?xml version="1.0" encoding="utf-8"?>
<!-- Generator: Adobe Illustrator 26.1.0, SVG Export Plug-In . SVG Version: 6.00 Build 0)  -->
<svg version="1.1" id="Ebene_1" xmlns="http://www.w3.org/2000/svg" xmlns:xlink="http://www.w3.org/1999/xlink" x="0px" y="0px"
	 viewBox="0 0 100 100" style="enable-background:new 0 0 100 100;" xml:space="preserve">
<style type="text/css">
	.st0{filter:url(#Adobe_OpacityMaskFilter);}
	.st1{clip-path:url(#SVGID_00000035500517189710805190000007560198803212275330_);fill:#FFFFFF;}
	
		.st2{clip-path:url(#SVGID_00000035500517189710805190000007560198803212275330_);fill:none;stroke:#FFFFFF;stroke-width:0.9998;stroke-miterlimit:10;}
	.st3{mask:url(#SVGID_1_);}
	.st4{fill:none;stroke:#FFFFFF;stroke-miterlimit:10;}
</style>
<g>
	<g>
		<defs>
			<filter id="Adobe_OpacityMaskFilter" filterUnits="userSpaceOnUse" x="59.3" y="50.7" width="36.6" height="44">
				<feColorMatrix  type="matrix" values="1 0 0 0 0  0 1 0 0 0  0 0 1 0 0  0 0 0 1 0"/>
			</filter>
		</defs>
		<mask maskUnits="userSpaceOnUse" x="59.3" y="50.7" width="36.6" height="44" id="SVGID_1_">
			<g class="st0">
				<g>
					<defs>
						<rect id="SVGID_00000038405270048898019400000006005819995797274800_" x="49.8" y="42.8" width="55" height="52"/>
					</defs>
					<clipPath id="SVGID_00000042703320375349599170000006247668392432595855_">
						<use xlink:href="#SVGID_00000038405270048898019400000006005819995797274800_"  style="overflow:visible;"/>
					</clipPath>
					<path style="clip-path:url(#SVGID_00000042703320375349599170000006247668392432595855_);fill:#FFFFFF;" d="M95.4,61.4
						c0-2-0.1-3.7-0.2-4.9h0c-2.2-0.2-4.4-0.6-6.4-1.1c-1.6-0.4-3.1-0.9-4.5-1.4c-1.7-0.6-3.2-1.2-4.4-1.7h0
						c-0.9-0.4-1.7-0.8-2.3-1.1c-1.4,0.7-3.8,1.7-6.7,2.8c-3.2,1.1-7,2.1-10.9,2.5c-0.1,1.2-0.2,2.9-0.2,4.9c0,3.9,0.3,9,1.6,14.1
						c1,3.9,2.5,7.8,4.9,11c0.7,0.9,1.4,1.8,2.2,2.6c2.4,2.3,5.3,4.2,9.1,5.2c3.8-1,6.8-2.8,9.1-5.2c2.4-2.4,4.2-5.4,5.5-8.6
						C94.8,74,95.4,66.7,95.4,61.4"/>
					
						<path style="clip-path:url(#SVGID_00000042703320375349599170000006247668392432595855_);fill:none;stroke:#FFFFFF;stroke-width:0.9998;stroke-miterlimit:10;" d="
						M95.4,61.4c0-2-0.1-3.7-0.2-4.9h0c-2.2-0.2-4.4-0.6-6.4-1.1c-1.6-0.4-3.1-0.9-4.5-1.4c-1.7-0.6-3.2-1.2-4.4-1.7h0
						c-0.9-0.4-1.7-0.8-2.3-1.1c-1.4,0.7-3.8,1.7-6.7,2.8c-3.2,1.1-7,2.1-10.9,2.5c-0.1,1.2-0.2,2.9-0.2,4.9c0,3.9,0.3,9,1.6,14.1
						c1,3.9,2.5,7.8,4.9,11c0.7,0.9,1.4,1.8,2.2,2.6c2.4,2.3,5.3,4.2,9.1,5.2c3.8-1,6.8-2.8,9.1-5.2c2.4-2.4,4.2-5.4,5.5-8.6
						C94.8,74,95.4,66.7,95.4,61.4z"/>
				</g>
			</g>
		</mask>
		<g class="st3">
			<g>
				<path class="st4" d="M95.4,61.4c0-2-0.1-3.7-0.2-4.9h0c-2.2-0.2-4.4-0.6-6.4-1.1c-1.6-0.4-3.1-0.9-4.5-1.4
					c-1.7-0.6-3.2-1.2-4.4-1.7h0c-0.9-0.4-1.7-0.8-2.3-1.1c-1.4,0.7-3.8,1.7-6.7,2.8c-3.2,1.1-7,2.1-10.9,2.5
					c-0.1,1.2-0.2,2.9-0.2,4.9c0,3.9,0.3,9,1.6,14.1c1,3.9,2.5,7.8,4.9,11c0.7,0.9,1.4,1.8,2.2,2.6c2.4,2.3,5.3,4.2,9.1,5.2
					c3.8-1,6.8-2.8,9.1-5.2c2.4-2.4,4.2-5.4,5.5-8.6C94.8,74,95.4,66.7,95.4,61.4"/>
				<path class="st4" d="M95.4,61.4c0-2-0.1-3.7-0.2-4.9h0c-2.2-0.2-4.4-0.6-6.4-1.1c-1.6-0.4-3.1-0.9-4.5-1.4
					c-1.7-0.6-3.2-1.2-4.4-1.7h0c-0.9-0.4-1.7-0.8-2.3-1.1c-1.4,0.7-3.8,1.7-6.7,2.8c-3.2,1.1-7,2.1-10.9,2.5
					c-0.1,1.2-0.2,2.9-0.2,4.9c0,3.9,0.3,9,1.6,14.1c1,3.9,2.5,7.8,4.9,11c0.7,0.9,1.4,1.8,2.2,2.6c2.4,2.3,5.3,4.2,9.1,5.2
					c3.8-1,6.8-2.8,9.1-5.2c2.4-2.4,4.2-5.4,5.5-8.6C94.8,74,95.4,66.7,95.4,61.4z"/>
			</g>
		</g>
		<path class="st4" d="M71,53.9c-7.1-6.8-16.8-11-27.4-11C21.7,42.9,4,60.6,4,82.5"/>
		<path class="st4" d="M71,53.9c-7.1-6.8-16.8-11-27.4-11C21.7,42.9,4,60.6,4,82.5"/>
		<path class="st4" d="M43.6,35.2c8.1,0,14.7-6.6,14.7-14.7S51.7,5.7,43.6,5.7s-14.7,6.6-14.7,14.7S35.5,35.2,43.6,35.2"/>
		<path class="st4" d="M43.6,35.2c8.1,0,14.7-6.6,14.7-14.7S51.7,5.7,43.6,5.7s-14.7,6.6-14.7,14.7S35.5,35.2,43.6,35.2"/>
	</g>
	<polyline class="st4" points="71,73.3 75.9,77.4 84.2,67.6 	"/>
	<polyline class="st4" points="71,73.3 75.9,77.4 84.2,67.6 	"/>
</g>
</svg>
