<?xml version="1.0" encoding="utf-8"?>
<!-- Generator: Adobe Illustrator 26.1.0, SVG Export Plug-In . SVG Version: 6.00 Build 0)  -->
<svg version="1.1" id="Ebene_1" xmlns="http://www.w3.org/2000/svg" xmlns:xlink="http://www.w3.org/1999/xlink" x="0px" y="0px"
	 viewBox="0 0 30 30" style="enable-background:new 0 0 30 30;" xml:space="preserve">
<style type="text/css">
	.st0{fill:#0B1B4C;}
</style>
<path id="Differenzmenge_9" class="st0" d="M15,30C6.7,30-0.1,23.3-0.1,15c0-8.3,6.7-15.1,15-15.1c8.3,0,15.1,6.7,15.1,15
	c0,6-3.6,11.5-9.1,13.9C19,29.6,17,30,15,30z M6.2,21.1L6.2,21.1c1.7,1.1,3.7,1.7,5.7,1.6c1.6,0,3.1-0.3,4.6-1
	c1.3-0.6,2.4-1.4,3.3-2.5c1.7-2,2.7-4.5,2.7-7.1v-0.4c0.7-0.5,1.4-1.2,1.9-1.9c-0.7,0.3-1.4,0.5-2.2,0.6c0.8-0.5,1.3-1.2,1.6-2
	c-0.7,0.4-1.5,0.7-2.3,0.9c-1.4-1.5-3.7-1.6-5.2-0.2c0,0,0,0,0,0c-0.8,0.7-1.2,1.7-1.2,2.7c0,0.3,0,0.6,0.1,0.8
	c-3-0.2-5.8-1.6-7.6-3.9c-0.3,0.6-0.5,1.2-0.5,1.9c0,1.2,0.6,2.4,1.6,3.1c-0.6,0-1.2-0.1-1.6-0.5v0.1c0,1.8,1.3,3.3,3,3.7
	c-0.3,0.1-0.6,0.1-1,0.1c-0.2,0-0.5,0-0.7-0.1c0.5,1.5,1.9,2.5,3.4,2.5c-1.3,1-3,1.6-4.6,1.6C6.7,21.2,6.4,21.1,6.2,21.1z"/>
</svg>
