<?xml version="1.0" encoding="utf-8"?>
<!-- Generator: Adobe Illustrator 26.1.0, SVG Export Plug-In . SVG Version: 6.00 Build 0)  -->
<svg version="1.1" id="Ebene_1" xmlns="http://www.w3.org/2000/svg" xmlns:xlink="http://www.w3.org/1999/xlink" x="0px" y="0px"
	 viewBox="0 0 160 160" style="enable-background:new 0 0 160 160;" xml:space="preserve">
<style type="text/css">
	.st0{fill:#1265EA;}
	.st1{fill:none;stroke:#FFFFFF;stroke-width:1.0178;}
	.st2{fill:#FFFFFF;}
</style>
<g id="Gruppe_1531" transform="translate(32 -3566)">
	<circle id="Ellipse_75" class="st0" cx="48" cy="3646.1" r="80"/>
</g>
<g id="Gruppe_1381" transform="translate(0 74.409)">
	<g>
		<g id="Gruppe_1333" transform="translate(0 -74.409)">
			<g id="Gruppe_1327" transform="translate(0.807 0.806)">
				<path id="Pfad_842" class="st1" d="M44,49.6c-2.6,0-4.7,2.1-4.7,4.7v50.1c0,2.6,2.1,4.7,4.7,4.7h70.5c2.6,0,4.7-2.1,4.7-4.7
					V54.2c0-2.6-2.1-4.7-4.7-4.7H44z"/>
			</g>
			<g id="Gruppe_1328" transform="translate(0.7 13.756)">
				<path id="Pfad_843" class="st1" d="M39.3,49.8h80"/>
			</g>
			<g id="Gruppe_1329" transform="translate(5.462 5.006)">
				<path id="Pfad_844" class="st1" d="M41.6,54.1c1.2,0,2.2-1,2.2-2.2c0,0,0,0,0,0c0-1.2-1-2.2-2.2-2.2c0,0,0,0,0,0
					c-1.2,0-2.2,1-2.2,2.2C39.4,53.1,40.4,54.1,41.6,54.1z"/>
			</g>
			<g id="Gruppe_1330" transform="translate(13.862 5.006)">
				<path id="Pfad_845" class="st1" d="M41.8,54.1c1.2,0,2.2-1,2.2-2.2c0,0,0,0,0,0c0-1.2-1-2.2-2.2-2.2c0,0,0,0,0,0
					c-1.2,0-2.2,1-2.2,2.2C39.5,53.1,40.5,54.1,41.8,54.1z"/>
			</g>
			<g id="Gruppe_1331" transform="translate(22.262 5.006)">
				<path id="Pfad_846" class="st1" d="M41.9,54.1c1.2,0,2.2-1,2.2-2.2c0,0,0,0,0,0c0-1.2-1-2.2-2.2-2.2c0,0,0,0,0,0
					c-1.2,0-2.2,1-2.2,2.2C39.7,53.1,40.7,54.1,41.9,54.1z"/>
			</g>
			<g id="Gruppe_1332" transform="translate(22.233 30.375)">
				<path id="Pfad_847" class="st2" d="M41.4,56.4v-4.8h2.5c2,0,2.8,0.9,2.8,2.4c0,1.5-0.8,2.4-2.8,2.4L41.4,56.4z M48.5,54
					c0-2.2-1.5-3.9-4.5-3.9h-4.2v13.2h1.7v-5.5h2.5C47.2,57.8,48.5,56,48.5,54 M60.5,63.3h1.7V50.1h-1.7v5.8h-6.7v-5.8h-1.7v13.2
					h1.7v-6h6.7V63.3z M68.8,56.4v-4.8h2.5c2,0,2.8,0.9,2.8,2.4c0,1.5-0.8,2.4-2.8,2.4L68.8,56.4z M75.9,54c0-2.2-1.5-3.9-4.5-3.9
					h-4.2v13.2h1.7v-5.5h2.5C74.6,57.8,75.9,56,75.9,54"/>
			</g>
		</g>
	</g>
</g>
</svg>
