<?xml version="1.0" encoding="utf-8"?>
<!-- Generator: Adobe Illustrator 27.7.0, SVG Export Plug-In . SVG Version: 6.00 Build 0)  -->
<svg version="1.1" id="Ebene_1" xmlns="http://www.w3.org/2000/svg" xmlns:xlink="http://www.w3.org/1999/xlink" x="0px" y="0px"
	 viewBox="0 0 30 30" style="enable-background:new 0 0 30 30;" xml:space="preserve">
<style type="text/css">
	.st0{fill:#0B1B4C;}
	.st1{fill:#FFFFFF;}
</style>
<path id="Differenzmenge_9" class="st0" d="M15.1,30c-8.3,0-15.1-6.7-15.1-15s6.7-15.1,15-15.1S30,6.6,30,14.9
	c0,6-3.6,11.5-9.1,13.9C19,29.7,17,30,15.1,30z"/>
<path class="st1" d="M16.5,13.8l5.9-6.9H21l-5.1,6l-4.1-6H7.1l6.2,9l-6.2,7.2h1.4l5.4-6.3l4.3,6.3h4.7L16.5,13.8L16.5,13.8z
	 M14.6,16L14,15.1L9,7.9h2.1l4,5.8l0.6,0.9l5.2,7.5h-2.1L14.6,16L14.6,16z"/>
</svg>
