<?xml version="1.0" encoding="utf-8"?>
<!-- Generator: Adobe Illustrator 26.1.0, SVG Export Plug-In . SVG Version: 6.00 Build 0)  -->
<svg version="1.1" id="Ebene_1" xmlns="http://www.w3.org/2000/svg" xmlns:xlink="http://www.w3.org/1999/xlink" x="0px" y="0px"
	 viewBox="0 0 160 160" style="enable-background:new 0 0 160 160;" xml:space="preserve">
<style type="text/css">
	.st0{fill:#1265EA;}
	.st1{fill:none;stroke:#FFFFFF;stroke-width:0.923;}
	.st2{fill:none;stroke:#FFFFFF;}
</style>
<g id="Gruppe_1531" transform="translate(32 -3566)">
	<circle id="Ellipse_75" class="st0" cx="48" cy="3646" r="80"/>
</g>
<g id="Gruppe_1567" transform="translate(0 53.286)">
	<g>
		<g id="Gruppe_1566" transform="translate(0 -53.286)">
			<g id="Gruppe_1563" transform="translate(0.443 0.443)">
				<path id="Pfad_977" class="st1" d="M93.2,64.4c-2.7-2.7-6.4-4.2-10.3-4.2c-3.1,0-6.2,1-8.7,2.9c-2.3-5.3-7.6-8.7-13.4-8.8
					c-8.2,0-14.8,6.7-14.7,14.9c0,0.3,0.1,0.6,0.1,0.9c-6.9,1.5-11.7,7.5-11.7,14.5c0,8.2,6.6,14.8,14.7,14.9l6.3,0l33.7-0.2l2.6,0"
					/>
			</g>
			<g id="Gruppe_1564" transform="translate(47.647 8.749)">
				<path id="Pfad_978" class="st2" d="M68.9,65.2c-1-1.3-2.2-2.5-3.5-3.5l1.3-4.7l-6.5-2.7l-2.4,4.2c-1.6-0.2-3.3-0.2-4.9,0
					l-2.4-4.2L44,57.1l1.3,4.7c-1.3,1-2.5,2.2-3.5,3.5l-4.7-1.3l-2.7,6.5l4.2,2.4c-0.2,1.6-0.2,3.3,0,4.9l-4.2,2.4l2.7,6.5l4.7-1.3
					c1,1.3,2.2,2.5,3.5,3.5L44,93.4l6.5,2.7l2.4-4.2c1.6,0.2,3.3,0.2,4.9,0l2.4,4.2l6.5-2.7l-1.3-4.7c1.3-1,2.5-2.2,3.5-3.5l4.7,1.3
					l2.7-6.5L72,77.7c0.2-1.6,0.2-3.3,0-4.9l4.2-2.4l-2.7-6.5L68.9,65.2z M36,83.8l-1.5-3.7l4.2-2.4c-0.2-1.6-0.2-3.3,0-4.9
					l-4.2-2.4l2.7-6.5l4.7,1.3c1-1.3,2.2-2.5,3.5-3.5L44,57l6.5-2.7l2.4,4.2c1.3-0.2,2.7-0.2,4-0.1"/>
			</g>
			<g id="Gruppe_1565" transform="translate(61.758 22.861)">
				<path id="Pfad_979" class="st2" d="M43.8,67.4c3.4-1.4,5.1-5.4,3.7-8.8c-1.4-3.4-5.4-5.1-8.8-3.7c-3.4,1.4-5.1,5.4-3.7,8.8
					C36.4,67.2,40.4,68.8,43.8,67.4"/>
			</g>
		</g>
	</g>
</g>
</svg>
