<?xml version="1.0" encoding="utf-8"?>
<!-- Generator: Adobe Illustrator 26.1.0, SVG Export Plug-In . SVG Version: 6.00 Build 0)  -->
<svg version="1.1" id="Ebene_1" xmlns="http://www.w3.org/2000/svg" xmlns:xlink="http://www.w3.org/1999/xlink" x="0px" y="0px"
	 viewBox="0 0 160 160" style="enable-background:new 0 0 160 160;" xml:space="preserve">
<style type="text/css">
	.st0{fill:#1265EA;}
	.st1{fill:none;stroke:#FFFFFF;}
</style>
<g id="Gruppe_1531" transform="translate(32 -3566)">
	<circle id="Ellipse_75" class="st0" cx="48" cy="3646" r="80"/>
	<g id="Gruppe_1530" transform="translate(8 3616)">
		<g>
			<g id="Gruppe_1301">
				<g id="Gruppe_1300" transform="translate(0.806 0.806)">
					<path id="Pfad_818" class="st1" d="M78.4,47.5V4c0-2.2-1.8-4-4-4c0,0,0,0,0,0H4C1.8,0,0,1.8,0,4v43.5c0,2.2,1.8,4,4,4h11.3
						v13.2l12-13.2h47.1C76.6,51.5,78.4,49.7,78.4,47.5C78.4,47.5,78.4,47.5,78.4,47.5z"/>
				</g>
			</g>
		</g>
		<g id="Gruppe_1302" transform="translate(4.582 45.686)">
			<path id="Pfad_820" class="st1" d="M0,0"/>
		</g>
		<g>
			<g id="Gruppe_1305">
				<g id="Gruppe_1303" transform="translate(25.525 12.366)">
					<path id="Pfad_821" class="st1" d="M23.2,7.3c-0.7-0.9-1.5-1.7-2.4-2.3l0.9-3.2L17.4,0l-1.6,2.8c-1.1-0.2-2.2-0.2-3.3,0L10.8,0
						L6.4,1.8L7.3,5C6.4,5.6,5.6,6.4,5,7.3L1.8,6.4L0,10.8l2.8,1.6c-0.2,1.1-0.2,2.2,0,3.3L0,17.4l1.8,4.4L5,20.8
						c0.7,0.9,1.5,1.7,2.4,2.3l-0.9,3.2l4.4,1.8l1.6-2.8c1.1,0.2,2.2,0.2,3.3,0l1.6,2.8l4.4-1.8l-0.9-3.2c0.9-0.7,1.7-1.5,2.3-2.4
						l3.2,0.9l1.8-4.4l-2.8-1.6c0.2-1.1,0.2-2.2,0-3.3l2.8-1.6l-1.8-4.4L23.2,7.3z"/>
				</g>
				<g id="Gruppe_1304" transform="translate(35.023 21.864)">
					<path id="Pfad_822" class="st1" d="M6.3,8.8c2.3-1,3.4-3.6,2.5-6c-1-2.3-3.6-3.4-6-2.5c-2.3,1-3.4,3.6-2.5,6
						C1.3,8.7,4,9.8,6.3,8.8"/>
				</g>
			</g>
		</g>
	</g>
</g>
</svg>
