<?xml version="1.0" encoding="utf-8"?>
<!-- Generator: Adobe Illustrator 26.1.0, SVG Export Plug-In . SVG Version: 6.00 Build 0)  -->
<svg version="1.1" id="Ebene_1" xmlns="http://www.w3.org/2000/svg" xmlns:xlink="http://www.w3.org/1999/xlink" x="0px" y="0px"
	 viewBox="0 0 160 160" style="enable-background:new 0 0 160 160;" xml:space="preserve">
<style type="text/css">
	.st0{fill:#1265EA;}
	.st1{fill:none;stroke:#FFFFFF;}
</style>
<g id="Gruppe_1531" transform="translate(32 -3566)">
	<circle id="Ellipse_75" class="st0" cx="48" cy="3646" r="80"/>
</g>
<g id="Gruppe_1326" transform="translate(0 94.219)">
	<g id="Gruppe_1318" transform="translate(39.554 -56.215)">
		<path id="Pfad_834" class="st1" d="M40,42"/>
	</g>
	<g>
		<g id="Gruppe_1325" transform="translate(0 -94.219)">
			<g id="Gruppe_1319" transform="translate(19.6 18.051)">
				<path id="Pfad_835" class="st1" d="M72.9,52.4c-0.9-1.3-2.1-2.4-3.3-3.3l1.2-4.5L64.6,42l-2.3,4c-1.6-0.2-3.2-0.2-4.7,0l-2.3-4
					l-6.2,2.6l1.2,4.5C49.1,50,48,51.1,47,52.4l-4.5-1.2L40,57.3l4,2.3c-0.2,1.6-0.2,3.1,0,4.7l-4,2.3l2.6,6.2l4.5-1.2
					c0.9,1.3,2.1,2.4,3.3,3.3l-1.2,4.5l6.2,2.6l2.3-4c1.6,0.2,3.2,0.2,4.7,0l2.3,4l6.2-2.6l-1.2-4.5c1.3-0.9,2.4-2.1,3.3-3.3
					l4.5,1.2l2.6-6.2l-4-2.3c0.2-1.6,0.2-3.2,0-4.7l4-2.3l-2.6-6.2L72.9,52.4z"/>
			</g>
			<g id="Gruppe_1320" transform="translate(33.089 31.539)">
				<path id="Pfad_836" class="st1" d="M48.9,54.5c3.3-1.4,4.9-5.1,3.5-8.4c-1.4-3.3-5.1-4.9-8.4-3.5c-3.3,1.4-4.9,5.1-3.5,8.4
					C41.9,54.2,45.6,55.8,48.9,54.5"/>
			</g>
			<g id="Gruppe_1321" transform="translate(3.367 0.807)">
				<path id="Pfad_837" class="st1" d="M112.6,74.1c-0.2-1.7-0.5-3.3-0.9-4.9C107.4,53.2,92.9,42,76.3,42C57.5,42,41.8,56.3,40,75"
					/>
			</g>
			<g id="Gruppe_1322" transform="translate(71.776 28.504)">
				<path id="Pfad_838" class="st1" d="M47.6,42l-3.4,4.4L40,42.7"/>
			</g>
			<g id="Gruppe_1323" transform="translate(4.037 41.87)">
				<path id="Pfad_839" class="st1" d="M112.6,42c-0.2,2-0.5,4-1,5.9C107.4,64,92.8,75.3,76.2,75.3c-19,0-34.4-13.4-36.2-32"/>
			</g>
			<g id="Gruppe_1324" transform="translate(0.641 43.192)">
				<path id="Pfad_840" class="st1" d="M47.6,45.7L43.4,42L40,46.5"/>
			</g>
		</g>
	</g>
</g>
</svg>
