<?xml version="1.0" encoding="utf-8"?>
<!-- Generator: Adobe Illustrator 27.7.0, SVG Export Plug-In . SVG Version: 6.00 Build 0)  -->
<svg version="1.1" id="Ebene_1" xmlns="http://www.w3.org/2000/svg" xmlns:xlink="http://www.w3.org/1999/xlink" x="0px" y="0px"
	 viewBox="0 0 152.1 37.8" style="enable-background:new 0 0 152.1 37.8;" xml:space="preserve">
<style type="text/css">
	.st0{fill-rule:evenodd;clip-rule:evenodd;fill:#1265EA;}
	.st1{fill:#0B1B4C;}
</style>
<g id="Gruppe_1262" transform="translate(-358.581 -276.311)">
	<path id="Pfad_763" class="st0" d="M387.1,305.6c-3.2-0.4-4.7-2.8-6.2-5.2l1.2-1.9c0.7,1.1,1.6,2,2.7,2.7c2.8,1.4,6.7,0.5,8.1-2.2
		c2-4-0.5-9.3-5.2-8.6c-3.5,0.5-4.6,4.3-6.1,7.2l0,0l-1.4,2c-2.1,2.9-3.5,6.7-8.6,6.2c-3.8-0.4-6.6-4.1-7-8.3
		c-0.4-5.2,2-11.3,8.1-10.6c3.2,0.3,5,3,6.5,5.5l-1.1,1.8c-0.5-0.7-1-1.3-1.7-1.8c-1.5-1.3-3.5-1.9-5.4-1.5
		c-4.8,0.7-6.2,7.5-2.5,10.4c3.4,2.7,6.8-0.5,8.3-3c0.4-0.7,1-1.6,1.4-2.4l1.6-2.9c2-2.9,3.5-6.8,8.6-6.3c1.7,0.2,3.2,1,4.3,2.2
		c-4-9-14.6-13-23.6-9s-13,14.6-9,23.6s14.6,13,23.6,9c3.8-1.7,6.9-4.6,8.7-8.3C390.9,305.4,389,305.9,387.1,305.6"/>
	<g id="Gruppe_1261" transform="translate(398.694 276.311)">
		<path id="Pfad_764" class="st1" d="M0,30.6l2.2-1.6c0.7,1,1.8,1.7,3.1,1.9c1.3,0.3,2.6,0,3.6-0.8c1.1-0.7,1.8-1.9,2-3.1
			c0.3-1.9-0.1-3.3-1.1-4.1C9.2,22.4,8.6,22,8,21.6c-0.6-0.4-1.2-0.7-1.9-1.1c-0.6-0.4-1.3-0.8-1.9-1.2C3.7,19,3.1,18.5,2.6,18
			c-1-1-1.3-2.6-1-4.9c0.2-1.6,1.1-3.1,2.5-4c1.3-1,3-1.4,4.7-1.1c1.7,0.3,3.2,1.3,4.1,2.7l-2.1,1.5c-0.6-0.8-1.4-1.4-2.4-1.6
			c-0.9-0.2-1.9,0-2.7,0.6c-1.7,1.2-2,3.6-0.8,5.2c0.2,0.2,0.4,0.4,0.6,0.6c1.1,0.7,2.3,1.4,3.6,2.1c1.3,0.7,2.5,1.7,3.5,2.8
			c1,1.2,1.3,3,0.9,5.4c-0.3,2-1.4,3.7-3.1,4.9c-1.7,0.9-3.7,1.2-5.6,1.1C2.9,33.3,1.1,32.2,0,30.6z"/>
		<path id="Pfad_765" class="st1" d="M35.3,30.4c-2.2,2.1-5.1,3.3-8.1,3.2c-2.9,0.1-5.7-1-7.9-2.9c-2.1-2.1-3.3-4.9-3.3-7.9v-3.5
			c0.1-6.2,5.1-11.1,11.3-11c6,0.1,10.9,5,11,11v3.1H18.7v0.4c0,2.3,0.9,4.5,2.5,6.1c1.6,1.6,3.8,2.5,6,2.5c2.4,0,4.6-1,6.2-2.7
			L35.3,30.4z M35.7,19.6v-0.4c0-4.7-3.8-8.4-8.5-8.5c-2.3,0-4.4,0.9-6,2.5c-1.6,1.6-2.5,3.7-2.5,6v0.4L35.7,19.6z"/>
		<path id="Pfad_766" class="st1" d="M44.3,0v28.7c-0.1,1,0.6,2,1.6,2.2c0.2,0,0.4,0,0.5,0H47v2.6h-0.5c-2.6,0-4.7-2.1-4.7-4.6
			c0,0,0-0.1,0-0.1V0H44.3z"/>
		<path id="Pfad_767" class="st1" d="M68.1,30.4c-2.2,2.1-5.1,3.3-8.1,3.2c-2.9,0.1-5.7-1-7.9-2.9c-2.1-2.1-3.3-4.9-3.3-7.9v-3.5
			c0-6.2,5-11.1,11.2-11.1c6.1,0,11.1,5,11.1,11.1v3.1H51.5v0.4c0,2.3,0.9,4.5,2.5,6.1c1.6,1.6,3.8,2.5,6,2.5c2.4,0,4.6-1,6.2-2.7
			L68.1,30.4z M68.5,19.6v-0.4c0-4.7-3.8-8.4-8.5-8.5c-2.3,0-4.4,0.9-6,2.5c-1.6,1.6-2.5,3.7-2.5,6v0.4L68.5,19.6z"/>
		<path id="Pfad_768" class="st1" d="M96.5,19.2v3.5c0,3-1.2,5.8-3.3,7.9c-4.5,3.9-11.2,3.9-15.7,0c-2.1-2.1-3.3-4.9-3.3-7.9v-3.5
			C74.1,13,79.1,8,85.3,8C91.5,8,96.4,13,96.5,19.2C96.5,19.2,96.5,19.2,96.5,19.2L96.5,19.2z M93.8,19.2c0-4.7-3.8-8.4-8.5-8.5
			c-2.3,0-4.4,0.9-6,2.5c-1.6,1.6-2.5,3.7-2.5,6v3.5c0,2.3,0.9,4.5,2.5,6.1c1.6,1.6,3.8,2.5,6,2.5c2.3,0,4.4-0.9,6-2.5
			c1.6-1.6,2.5-3.7,2.5-6V19.2z"/>
		<path id="Pfad_769" class="st1" d="M98.3,30.6l2.2-1.6c0.7,1,1.8,1.7,3.1,1.9c1.3,0.3,2.6,0,3.6-0.8c1.1-0.7,1.8-1.9,2-3.1
			c0.3-1.9-0.1-3.3-1.1-4.1c-0.5-0.4-1.1-0.8-1.7-1.2c-0.6-0.4-1.2-0.7-1.9-1.1c-0.6-0.4-1.3-0.8-1.9-1.2c-0.6-0.4-1.1-0.9-1.6-1.4
			c-1-1-1.3-2.6-1-4.9c0.2-1.6,1.1-3.1,2.5-4c1.3-1,3-1.4,4.7-1.1c1.7,0.3,3.2,1.3,4.1,2.7l-2.2,1.5c-0.6-0.8-1.4-1.4-2.4-1.6
			c-0.9-0.2-1.9,0-2.7,0.6c-1.7,1.2-2,3.6-0.8,5.2c0.2,0.2,0.4,0.4,0.6,0.6c1.1,0.7,2.3,1.4,3.6,2.1c1.3,0.7,2.5,1.7,3.5,2.8
			c1,1.2,1.3,3,0.9,5.4c-0.3,2-1.4,3.7-3.1,4.9c-1.7,0.9-3.7,1.2-5.6,1.1C101.2,33.3,99.4,32.2,98.3,30.6z"/>
	</g>
</g>
</svg>
