<?xml version="1.0" encoding="utf-8"?>
<!-- Generator: Adobe Illustrator 26.1.0, SVG Export Plug-In . SVG Version: 6.00 Build 0)  -->
<svg version="1.1" id="Ebene_1" xmlns="http://www.w3.org/2000/svg" xmlns:xlink="http://www.w3.org/1999/xlink" x="0px" y="0px"
	 viewBox="0 0 30 30" style="enable-background:new 0 0 30 30;" xml:space="preserve">
<style type="text/css">
	.st0{fill:#1265EA;}
</style>
<path class="st0" d="M15,0C6.7,0,0,6.7,0,15c0,8.3,6.7,15,15,15c8.3,0,15-6.7,15-15C30,6.7,23.3,0,15,0z M11.9,20.1H9.2v-8.7h2.7
	V20.1z M10.6,10.3C9.7,10.3,9,9.6,9,8.7s0.7-1.6,1.6-1.6s1.6,0.7,1.6,1.6C12.1,9.6,11.4,10.3,10.6,10.3z M22,20.1h-2.7v-4.2
	c0-1,0-2.3-1.4-2.3c-1.4,0-1.6,1.1-1.6,2.2v4.3h-2.7v-8.7h2.6v1.2h0c0.5-0.9,1.5-1.4,2.6-1.4c2.7,0,3.2,1.8,3.2,4.1L22,20.1z"/>
</svg>
