<?xml version="1.0" encoding="utf-8"?>
<!-- Generator: Adobe Illustrator 26.1.0, SVG Export Plug-In . SVG Version: 6.00 Build 0)  -->
<svg version="1.1" id="Ebene_1" xmlns="http://www.w3.org/2000/svg" xmlns:xlink="http://www.w3.org/1999/xlink" x="0px" y="0px"
	 viewBox="0 0 30 30" style="enable-background:new 0 0 30 30;" xml:space="preserve">
<style type="text/css">
	.st0{fill:#1265EA;}
</style>
<path class="st0" d="M15,0C6.7,0,0,6.7,0,15c0,8.3,6.7,15,15,15c2,0,4-0.4,5.9-1.2c1.8-0.8,3.4-1.9,4.7-3.2C28.4,22.8,30,19,30,15
	C30,6.7,23.3,0,15,0z M10.5,18.3H8.1c-0.1,0-0.2-0.1-0.3-0.1c-0.1-0.1-0.1-0.3,0-0.4l2.5-4.3l-1.6-2.7c-0.1-0.1-0.1-0.1-0.1-0.2
	c0-0.2,0.2-0.3,0.4-0.3l2.3,0c0.3,0,0.6,0.2,0.7,0.4l0.2,0.4l1.3,2.3c-0.1,0.1-2.5,4.3-2.5,4.4C11,18.1,10.7,18.3,10.5,18.3z
	 M21.5,7.4l-5.2,9.1l3.3,6c0.1,0.1,0.1,0.3,0,0.4c-0.1,0.1-0.2,0.1-0.3,0.2h-2.3c-0.3,0-0.6-0.2-0.7-0.4c0-0.1-3.3-6.1-3.3-6.1
	l0.4-0.7c1.3-2.2,4.6-8.3,4.7-8.4c0.1-0.3,0.3-0.5,0.6-0.4l2.3,0c0.1,0,0.3,0,0.4,0.1C21.6,7.1,21.6,7.3,21.5,7.4z"/>
</svg>
