<?xml version="1.0" encoding="utf-8"?>
<!-- Generator: Adobe Illustrator 26.1.0, SVG Export Plug-In . SVG Version: 6.00 Build 0)  -->
<svg version="1.1" id="Ebene_1" xmlns="http://www.w3.org/2000/svg" xmlns:xlink="http://www.w3.org/1999/xlink" x="0px" y="0px"
	 viewBox="0 0 100 100" style="enable-background:new 0 0 100 100;" xml:space="preserve">
<style type="text/css">
	.st0{fill:none;stroke:#FFFFFF;stroke-miterlimit:10;}
</style>
<g>
	<path class="st0" d="M75.8,88.8L64.2,84l-7.6,9.9L50,69.4l1.2-4.5c6.2-0.2,11.9-2.4,16.5-5.9L75.8,88.8z"/>
</g>
<g>
	<path class="st0" d="M51.2,64.9L50,69.4l-6.7,24.5L35.8,84l-11.6,4.8l8-29.8c4.7,3.5,10.3,5.6,16.5,5.9c0.4,0,0.8,0,1.2,0
		S50.8,64.9,51.2,64.9z"/>
</g>
<path class="st0" d="M50,5.5c-16.4,0-29.7,13.3-29.7,29.7C20.3,45,25,53.6,32.2,59c4.7,3.5,10.3,5.6,16.5,5.9c0.4,0,0.8,0,1.2,0
	s0.8,0,1.2,0c6.2-0.2,11.9-2.4,16.5-5.9c7.2-5.4,11.9-14.1,11.9-23.8C79.7,18.8,66.4,5.5,50,5.5z M64,42l0.4,4.5l0,0l0.1,1.6
	l-6.2,0.3L55.4,54l-1.1-0.6L50,50.9l-4.3,2.5L44.6,54l-2.9-5.5l-6.2-0.3l0.1-1.6l0,0L36,42l-5-3.6l3.8-4.9l-2.3-5.8l5.9-2.1l1.2-6.1
	l6,1.4l4.3-4.5l4.3,4.5l6-1.4l1.2,6.1l5.9,2.1L65,33.5l3.8,4.9L64,42z"/>
<polygon class="st0" points="64.4,46.5 64.5,48.2 58.3,48.5 55.4,54 54.3,53.4 50,50.9 45.7,53.4 44.6,54 41.7,48.5 35.5,48.2 
	35.6,46.5 35.6,46.5 36,42 31,38.3 34.8,33.4 32.5,27.6 38.4,25.5 39.6,19.5 45.7,20.9 50,16.4 54.3,20.9 60.4,19.5 61.6,25.5 
	67.5,27.6 65.2,33.4 69,38.3 64,42 "/>
</svg>
