<?xml version="1.0" encoding="utf-8"?>
<!-- Generator: Adobe Illustrator 26.1.0, SVG Export Plug-In . SVG Version: 6.00 Build 0)  -->
<svg version="1.1" id="Ebene_1" xmlns="http://www.w3.org/2000/svg" xmlns:xlink="http://www.w3.org/1999/xlink" x="0px" y="0px"
	 viewBox="0 0 100 100" style="enable-background:new 0 0 100 100;" xml:space="preserve">
<style type="text/css">
	.st0{fill:none;stroke:#FFFFFF;stroke-width:1.0109;stroke-miterlimit:10;}
	
		.st1{clip-path:url(#SVGID_00000054262674728049562690000009130435048224391326_);fill:none;stroke:#FFFFFF;stroke-width:1.0109;stroke-miterlimit:10;}
	.st2{fill:none;stroke:#FFFFFF;stroke-miterlimit:10;}
</style>
<g>
	<path class="st0" d="M50,16.5c-17.1,0-31.1,13.9-31.1,31.1c0,12.7,7.6,23.6,18.6,28.4c0.2,0.1,0.4,0.2,0.6,0.3v-0.2h23.8v0.2
		c11.2-4.7,19.2-15.8,19.2-28.7C81.1,30.5,67.1,16.5,50,16.5z M66.4,49.9l4.1,2.3l-2.6,6.3l-4.5-1.2c-0.9,1.3-2.1,2.4-3.4,3.4
		l1.2,4.5l-6.3,2.6l-2.3-4.1c-1.6,0.2-3.2,0.2-4.8,0l-2.3,4.1l-6.3-2.6l1.2-4.5c-1.3-0.9-2.4-2.1-3.4-3.4l-4.5,1.2L30,52.3l4.1-2.3
		c-0.2-1.6-0.2-3.2,0-4.8L30,42.8l2.6-6.3l4.5,1.2c0.9-1.3,2.1-2.4,3.4-3.4l-1.2-4.5l6.3-2.6l2.3,4.1c1.6-0.2,3.2-0.2,4.8,0l2.3-4.1
		l6.3,2.6L60,34.4c1.3,1,2.4,2.1,3.4,3.4l4.5-1.2l2.6,6.3l-4.1,2.3C66.6,46.8,66.6,48.4,66.4,49.9z"/>
	<line class="st0" x1="50" y1="11.2" x2="50" y2="4.7"/>
</g>
<line class="st0" x1="32.1" y1="16.2" x2="28.4" y2="10.4"/>
<line class="st0" x1="18.7" y1="29.6" x2="12.9" y2="25.9"/>
<line class="st0" x1="87.1" y1="69.1" x2="81.3" y2="65.4"/>
<g>
	<line class="st0" x1="13.7" y1="47.5" x2="7.2" y2="47.5"/>
	<line class="st0" x1="92.8" y1="47.5" x2="86.3" y2="47.5"/>
</g>
<line class="st0" x1="18.7" y1="65.4" x2="12.9" y2="69.1"/>
<line class="st0" x1="87.1" y1="25.9" x2="81.3" y2="29.6"/>
<line class="st0" x1="71.6" y1="10.4" x2="67.9" y2="16.2"/>
<g>
	<defs>
		<path id="SVGID_1_" d="M38.1,76.1v15.8c0,1.6,1.3,2.9,2.9,2.9H59c1.6,0,2.9-1.3,2.9-2.9V76.1H38.1z"/>
	</defs>
	<clipPath id="SVGID_00000166667469460449595520000014711616020381777817_">
		<use xlink:href="#SVGID_1_"  style="overflow:visible;"/>
	</clipPath>
	
		<line style="clip-path:url(#SVGID_00000166667469460449595520000014711616020381777817_);fill:none;stroke:#FFFFFF;stroke-width:1.0109;stroke-miterlimit:10;" x1="34.5" y1="70.7" x2="64.6" y2="70.7"/>
	
		<line style="clip-path:url(#SVGID_00000166667469460449595520000014711616020381777817_);fill:none;stroke:#FFFFFF;stroke-width:1.0109;stroke-miterlimit:10;" x1="34.5" y1="74.6" x2="64.6" y2="74.6"/>
	<use xlink:href="#SVGID_1_"  style="overflow:visible;fill:none;stroke:#FFFFFF;stroke-miterlimit:10;"/>
</g>
<g>
	<path class="st0" d="M61.9,76.1v15.8c0,1.6-1.3,2.9-2.9,2.9H41c-1.6,0-2.9-1.3-2.9-2.9V76.1H61.9z"/>
	<path class="st2" d="M66.4,49.9l4.1,2.3l-2.6,6.3l-4.5-1.2c-0.9,1.3-2.1,2.4-3.4,3.4l1.2,4.5l-6.3,2.6l-2.3-4.1
		c-1.6,0.2-3.2,0.2-4.8,0l-2.3,4.1l-6.3-2.6l1.2-4.5c-1.3-0.9-2.4-2.1-3.4-3.4l-4.5,1.2L30,52.3l4.1-2.3c-0.2-1.6-0.2-3.2,0-4.8
		L30,42.8l2.6-6.3l4.5,1.2c0.9-1.3,2.1-2.4,3.4-3.4l-1.2-4.5l6.3-2.6l2.3,4.1c1.6-0.2,3.2-0.2,4.8,0l2.3-4.1l6.3,2.6L60,34.4
		c1.3,1,2.4,2.1,3.4,3.4l4.5-1.2l2.6,6.3l-4.1,2.3C66.6,46.8,66.6,48.4,66.4,49.9z"/>
	<path class="st0" d="M66.4,49.9l4.1,2.3l-2.6,6.3l-4.5-1.2c-0.9,1.3-2.1,2.4-3.4,3.4l1.2,4.5l-6.3,2.6l-2.3-4.1
		c-1.6,0.2-3.2,0.2-4.8,0l-2.3,4.1l-6.3-2.6l1.2-4.5c-1.3-0.9-2.4-2.1-3.4-3.4l-4.5,1.2L30,52.3l4.1-2.3c-0.2-1.6-0.2-3.2,0-4.8
		L30,42.8l2.6-6.3l4.5,1.2c0.9-1.3,2.1-2.4,3.4-3.4l-1.2-4.5l6.3-2.6l2.3,4.1c1.6-0.2,3.2-0.2,4.8,0l2.3-4.1l6.3,2.6L60,34.4
		c1.3,1,2.4,2.1,3.4,3.4l4.5-1.2l2.6,6.3l-4.1,2.3C66.6,46.8,66.6,48.4,66.4,49.9z"/>
	<path class="st2" d="M52.7,53.6c3.3-1.4,4.9-5.2,3.6-8.6c-1.4-3.3-5.2-4.9-8.6-3.6c-3.3,1.4-4.9,5.2-3.6,8.6
		C45.5,53.4,49.4,55,52.7,53.6"/>
	<path class="st0" d="M52.7,53.6c3.3-1.4,4.9-5.2,3.6-8.6c-1.4-3.3-5.2-4.9-8.6-3.6c-3.3,1.4-4.9,5.2-3.6,8.6
		C45.5,53.4,49.4,55,52.7,53.6"/>
</g>
<line class="st0" x1="38.2" y1="82.3" x2="61.8" y2="82.3"/>
<line class="st0" x1="38.2" y1="88.5" x2="61.8" y2="88.5"/>
</svg>
